<mxfile host="app.diagrams.net" agent="Mozilla/5.0 (Windows NT 10.0; Win64; x64) AppleWebKit/537.36 (KHTML, like Gecko) Chrome/134.0.0.0 Safari/537.36" version="26.2.4">
  <diagram name="Page-1" id="smpPSvfqpI7pLMlHio-j">
    <mxGraphModel grid="1" page="1" gridSize="10" guides="1" tooltips="1" connect="1" arrows="1" fold="1" pageScale="1" pageWidth="850" pageHeight="1100" math="0" shadow="0">
      <root>
        <mxCell id="0" />
        <mxCell id="1" parent="0" />
        <mxCell id="aC5WsBHL-DF5amPtVLTG-1" value="Flow-chart" style="text;html=1;align=center;verticalAlign=middle;whiteSpace=wrap;rounded=0;fontStyle=1;fontFamily=Times New Roman;fontSize=24;labelPosition=center;verticalLabelPosition=middle;" vertex="1" parent="1">
          <mxGeometry x="142" y="91" width="190" height="30" as="geometry" />
        </mxCell>
        <mxCell id="aC5WsBHL-DF5amPtVLTG-2" value="Pseudo-code" style="text;html=1;align=center;verticalAlign=middle;whiteSpace=wrap;rounded=0;fontStyle=1;fontFamily=Times New Roman;fontSize=24;labelPosition=center;verticalLabelPosition=middle;" vertex="1" parent="1">
          <mxGeometry x="453" y="91" width="190" height="30" as="geometry" />
        </mxCell>
        <mxCell id="aC5WsBHL-DF5amPtVLTG-9" style="edgeStyle=orthogonalEdgeStyle;rounded=0;orthogonalLoop=1;jettySize=auto;html=1;exitX=0.5;exitY=1;exitDx=0;exitDy=0;entryX=0.5;entryY=0;entryDx=0;entryDy=0;" edge="1" parent="1" source="aC5WsBHL-DF5amPtVLTG-3" target="aC5WsBHL-DF5amPtVLTG-4">
          <mxGeometry relative="1" as="geometry" />
        </mxCell>
        <mxCell id="aC5WsBHL-DF5amPtVLTG-3" value="Begin" style="ellipse;whiteSpace=wrap;html=1;" vertex="1" parent="1">
          <mxGeometry x="177" y="161" width="125" height="40" as="geometry" />
        </mxCell>
        <mxCell id="aC5WsBHL-DF5amPtVLTG-10" style="edgeStyle=orthogonalEdgeStyle;rounded=0;orthogonalLoop=1;jettySize=auto;html=1;exitX=0.5;exitY=1;exitDx=0;exitDy=0;entryX=0.5;entryY=0;entryDx=0;entryDy=0;" edge="1" parent="1" source="aC5WsBHL-DF5amPtVLTG-4" target="aC5WsBHL-DF5amPtVLTG-8">
          <mxGeometry relative="1" as="geometry" />
        </mxCell>
        <mxCell id="aC5WsBHL-DF5amPtVLTG-4" value="Input C" style="shape=parallelogram;perimeter=parallelogramPerimeter;whiteSpace=wrap;html=1;fixedSize=1;" vertex="1" parent="1">
          <mxGeometry x="179.5" y="241" width="120" height="60" as="geometry" />
        </mxCell>
        <mxCell id="aC5WsBHL-DF5amPtVLTG-12" style="edgeStyle=orthogonalEdgeStyle;rounded=0;orthogonalLoop=1;jettySize=auto;html=1;exitX=0.5;exitY=1;exitDx=0;exitDy=0;entryX=0.5;entryY=0;entryDx=0;entryDy=0;" edge="1" parent="1" source="aC5WsBHL-DF5amPtVLTG-5" target="aC5WsBHL-DF5amPtVLTG-6">
          <mxGeometry relative="1" as="geometry" />
        </mxCell>
        <mxCell id="aC5WsBHL-DF5amPtVLTG-5" value="Display F" style="shape=parallelogram;perimeter=parallelogramPerimeter;whiteSpace=wrap;html=1;fixedSize=1;" vertex="1" parent="1">
          <mxGeometry x="179.5" y="441" width="120" height="60" as="geometry" />
        </mxCell>
        <mxCell id="aC5WsBHL-DF5amPtVLTG-6" value="End" style="ellipse;whiteSpace=wrap;html=1;" vertex="1" parent="1">
          <mxGeometry x="177" y="541" width="125" height="40" as="geometry" />
        </mxCell>
        <mxCell id="aC5WsBHL-DF5amPtVLTG-11" style="edgeStyle=orthogonalEdgeStyle;rounded=0;orthogonalLoop=1;jettySize=auto;html=1;exitX=0.5;exitY=1;exitDx=0;exitDy=0;entryX=0.5;entryY=0;entryDx=0;entryDy=0;" edge="1" parent="1" source="aC5WsBHL-DF5amPtVLTG-8" target="aC5WsBHL-DF5amPtVLTG-5">
          <mxGeometry relative="1" as="geometry" />
        </mxCell>
        <mxCell id="aC5WsBHL-DF5amPtVLTG-8" value="F = (9 * C) / 5 + 32" style="rounded=0;whiteSpace=wrap;html=1;" vertex="1" parent="1">
          <mxGeometry x="179.5" y="341" width="120" height="60" as="geometry" />
        </mxCell>
        <mxCell id="aC5WsBHL-DF5amPtVLTG-13" value="&lt;div&gt;Begin&lt;/div&gt;&lt;div&gt;&amp;nbsp; &amp;nbsp; Input C&lt;/div&gt;&lt;div&gt;&amp;nbsp; &amp;nbsp; F = (9 * C) / 5 + 32&lt;/div&gt;&lt;div&gt;&amp;nbsp; &amp;nbsp; Display F&lt;/div&gt;&lt;div&gt;End&lt;/div&gt;&lt;div&gt;&lt;br&gt;&lt;/div&gt;" style="text;html=1;align=left;verticalAlign=middle;whiteSpace=wrap;rounded=0;labelPosition=center;verticalLabelPosition=middle;fontFamily=Times New Roman;fontSize=18;" vertex="1" parent="1">
          <mxGeometry x="478" y="141" width="165" height="150" as="geometry" />
        </mxCell>
      </root>
    </mxGraphModel>
  </diagram>
</mxfile>
